<?xml version="1.0" ?><!DOCTYPE svg  PUBLIC '-//W3C//DTD SVG 1.1//EN'  'http://www.w3.org/Graphics/SVG/1.1/DTD/svg11.dtd'><svg height="60px" id="Layer_1" style="enable-background:new 0 0 60 60;" version="1.1" viewBox="0 0 60 60" width="60px" xml:space="preserve" xmlns="http://www.w3.org/2000/svg" xmlns:xlink="http://www.w3.org/1999/xlink"><style type="text/css">
	.st0{fill:#D9DCED;}
	.st1{fill:#3F51B5;}
	.st2{fill:#FFFFFF;}
	.st3{fill:#ABCFD3;}
	.st4{fill-rule:evenodd;clip-rule:evenodd;fill:#FFFFFF;}
</style><polygon class="st2" points="51.0002632,57 9.0002642,57 9.0002642,3 41.0002632,3 51.0002632,13 "/><path class="st1" d="M51,58H9c-0.5527344,0-1-0.4477539-1-1V3c0-0.5522461,0.4472656-1,1-1h32  c0.265625,0,0.5195312,0.1054688,0.7070312,0.2929688l10,10C51.8945312,12.4804688,52,12.7348633,52,13v44  C52,57.5522461,51.5527344,58,51,58z M10,56h40V13.4140625L40.5859375,4H10V56z"/><polygon class="st2" points="41.0002632,3 41.0002632,13 51.0002632,13 "/><path class="st1" d="M51,14H41c-0.5527344,0-1-0.4477539-1-1V3c0-0.4042969,0.2431641-0.769043,0.6171875-0.9238281  c0.3740234-0.1542969,0.8037109-0.0693359,1.0898438,0.2167969l10,10c0.2861328,0.2861328,0.3720703,0.7158203,0.2167969,1.0898438  C51.7695312,13.7563477,51.4042969,14,51,14z M42,12h6.5859375L42,5.4140625V12z"/><ellipse class="st0" cx="21.0002556" cy="47" rx="4.0363173" ry="3.4597044" transform="matrix(0.9647655 -0.2631111 0.2631111 0.9647655 -11.6262903 7.1814203)"/><path class="st1" d="M20.6826172,51.5043945c-0.7763672,0-1.5351562-0.1645508-2.2207031-0.4897461  c-1.1757812-0.5566406-2-1.512207-2.3203125-2.6899414c-0.3212891-1.1772461-0.0957031-2.418457,0.6337891-3.4951172  c0.6972656-1.0288086,1.78125-1.7856445,3.0517578-2.1323242c2.6796875-0.7294922,5.3857422,0.605957,6.0322266,2.9775391  c0.3212891,1.1777344,0.0957031,2.4189453-0.6337891,3.4956055c-0.6982422,1.0288086-1.7822266,1.7861328-3.0527344,2.1323242  C21.6787109,51.4375,21.1767578,51.5043945,20.6826172,51.5043945z M21.3193359,44.4956055  c-0.3154297,0-0.640625,0.0424805-0.9667969,0.1313477c-0.8095703,0.2207031-1.4921875,0.6914062-1.921875,1.3251953  c-0.3964844,0.5854492-0.5244141,1.2412109-0.359375,1.8466797s0.6074219,1.1054688,1.2470703,1.4086914  c0.6904297,0.3276367,1.5185547,0.3857422,2.3291016,0.1655273c0.8095703-0.2207031,1.4931641-0.6914062,1.9228516-1.3251953  c0.3964844-0.5854492,0.5244141-1.2412109,0.359375-1.8466797C23.6445312,45.1567383,22.5644531,44.4956055,21.3193359,44.4956055z"/><ellipse class="st0" cx="37.0002556" cy="43" rx="4.0363173" ry="3.4597044" transform="matrix(0.9647655 -0.2631111 0.2631111 0.9647655 -10.0100937 11.2502604)"/><path class="st1" d="M36.6826172,47.5043945c-0.7763672,0-1.5351562-0.1645508-2.2207031-0.4897461  c-1.1757812-0.5566406-2-1.512207-2.3203125-2.6899414c-0.3212891-1.1772461-0.0957031-2.418457,0.6337891-3.4951172  c0.6972656-1.0288086,1.78125-1.7856445,3.0517578-2.1323242c2.6816406-0.7319336,5.3847656,0.605957,6.0322266,2.9775391  c0.3212891,1.1777344,0.0957031,2.4189453-0.6337891,3.4956055c-0.6982422,1.0288086-1.7822266,1.7861328-3.0527344,2.1323242  C37.6787109,47.4375,37.1767578,47.5043945,36.6826172,47.5043945z M37.3193359,40.4956055  c-0.3154297,0-0.640625,0.0424805-0.9667969,0.1313477c-0.8095703,0.2207031-1.4921875,0.6914062-1.921875,1.3251953  c-0.3964844,0.5854492-0.5244141,1.2412109-0.359375,1.8466797s0.6074219,1.1054688,1.2470703,1.4086914  c0.6914062,0.3271484,1.5195312,0.3857422,2.3291016,0.1655273c0.8095703-0.2207031,1.4931641-0.6914062,1.9228516-1.3251953  c0.3964844-0.5854492,0.5244141-1.2412109,0.359375-1.8466797C39.6445312,41.1567383,38.5644531,40.4956055,37.3193359,40.4956055z"/><path class="st1" d="M25,48c-0.5527344,0-1-0.4477539-1-1V30.6923828c0-0.5522461,0.4472656-1,1-1s1,0.4477539,1,1V47  C26,47.5522461,25.5527344,48,25,48z"/><path class="st1" d="M41,44c-0.5527344,0-1-0.4477539-1-1V25.1538086c0-0.5522461,0.4472656-1,1-1s1,0.4477539,1,1V43  C42,43.5522461,41.5527344,44,41,44z"/><polygon class="st0" points="41.0002632,28.6154003 25.0002651,34.153801 25.0002651,26.5384998 41.0002632,21 "/><path class="st1" d="M25,35.1538086c-0.2050781,0-0.4082031-0.0629883-0.5800781-0.1855469  C24.15625,34.7807617,24,34.4770508,24,34.1538086v-7.6152344c0-0.4262695,0.2705078-0.8056641,0.6728516-0.9448242l16-5.5385742  c0.3027344-0.1074219,0.6425781-0.0581055,0.9072266,0.1303711C41.84375,20.3730469,42,20.6767578,42,21v7.6152344  c0,0.4262695-0.2705078,0.8056641-0.6728516,0.9448242l-16,5.5385742C25.2207031,35.1357422,25.1103516,35.1538086,25,35.1538086z   M26,27.2504883v5.4990234l14-4.8461914v-5.4990234L26,27.2504883z M41,28.6152344h0.0097656H41z"/></svg>