<?xml version="1.0" ?><!DOCTYPE svg  PUBLIC '-//W3C//DTD SVG 1.1//EN'  'http://www.w3.org/Graphics/SVG/1.1/DTD/svg11.dtd'><svg height="60px" id="Layer_1" style="enable-background:new 0 0 60 60;" version="1.1" viewBox="0 0 60 60" width="60px" xml:space="preserve" xmlns="http://www.w3.org/2000/svg" xmlns:xlink="http://www.w3.org/1999/xlink"><style type="text/css">
	.st0{fill:#D9DCED;}
	.st1{fill:#3F51B5;}
	.st2{fill:#FFFFFF;}
	.st3{fill:#ABCFD3;}
	.st4{fill-rule:evenodd;clip-rule:evenodd;fill:#FFFFFF;}
</style><polygon class="st2" points="51.0002632,57 9.0002642,57 9.0002642,3 41.0002632,3 51.0002632,13 "/><path class="st1" d="M51,58H9c-0.5527344,0-1-0.4477539-1-1V3c0-0.5522461,0.4472656-1,1-1h32  c0.265625,0,0.5195312,0.1054688,0.7070312,0.2929688l10,10C51.8945312,12.4804688,52,12.7348633,52,13v44  C52,57.5522461,51.5527344,58,51,58z M10,56h40V13.4140625L40.5859375,4H10V56z"/><polygon class="st2" points="41.0002632,3 41.0002632,13 51.0002632,13 "/><path class="st1" d="M51,14H41c-0.5527344,0-1-0.4477539-1-1V3c0-0.4042969,0.2431641-0.769043,0.6171875-0.9238281  c0.375-0.1542969,0.8037109-0.0693359,1.0898438,0.2167969l10,10c0.2861328,0.2861328,0.3720703,0.7158203,0.2167969,1.0898438  C51.7695312,13.7563477,51.4042969,14,51,14z M42,12h6.5859375L42,5.4140625V12z"/><rect class="st0" height="22" width="26" x="17.0002651" y="23"/><path class="st1" d="M43,46H17c-0.5527344,0-1-0.4477539-1-1V23c0-0.5522461,0.4472656-1,1-1h26c0.5527344,0,1,0.4477539,1,1v22  C44,45.5522461,43.5527344,46,43,46z M18,44h24V24H18V44z"/><polygon class="st2" points="43.0002632,45 17.0002651,45 23.0002651,37 29.0002651,41 35.0002632,31 "/><path class="st1" d="M43,46H17c-0.3789062,0-0.7246094-0.2138672-0.8945312-0.5527344  c-0.1689453-0.3388672-0.1328125-0.7441406,0.0947266-1.0473633l6-8c0.3173828-0.4243164,0.9121094-0.527832,1.3544922-0.2319336  l5.1269531,3.418457l5.4609375-9.1010742C34.3251953,30.1811523,34.6230469,29.9755859,35.0107422,30  c0.3544922,0.0039062,0.6816406,0.1958008,0.8574219,0.5039062l8,14c0.1767578,0.3095703,0.1757812,0.6899414-0.0029297,0.9980469  C43.6855469,45.8100586,43.3564453,46,43,46z M19,44h22.2763672l-6.2978516-11.0214844l-5.1210938,8.5361328  c-0.140625,0.234375-0.3710938,0.4008789-0.6376953,0.4609375c-0.2695312,0.0605469-0.546875,0.0078125-0.7744141-0.1435547  l-5.2128906-3.4750977L19,44z"/><path class="st1" d="M43,46H17c-0.5527344,0-1-0.4477539-1-1V23c0-0.5522461,0.4472656-1,1-1h26c0.5527344,0,1,0.4477539,1,1v22  C44,45.5522461,43.5527344,46,43,46z M18,44h24V24H18V44z"/><circle class="st2" cx="24.0002651" cy="30" r="3"/><path class="st1" d="M24,34c-2.2060547,0-4-1.7944336-4-4s1.7939453-4,4-4s4,1.7944336,4,4S26.2060547,34,24,34z M24,28  c-1.1025391,0-2,0.8969727-2,2s0.8974609,2,2,2s2-0.8969727,2-2S25.1025391,28,24,28z"/></svg>