<?xml version="1.0" ?><!DOCTYPE svg  PUBLIC '-//W3C//DTD SVG 1.1//EN'  'http://www.w3.org/Graphics/SVG/1.1/DTD/svg11.dtd'><svg height="60px" id="Layer_1" style="enable-background:new 0 0 60 60;" version="1.1" viewBox="0 0 60 60" width="60px" xml:space="preserve" xmlns="http://www.w3.org/2000/svg" xmlns:xlink="http://www.w3.org/1999/xlink"><style type="text/css">
	.st0{fill:#D9DCED;}
	.st1{fill:#3F51B5;}
	.st2{fill:#FFFFFF;}
	.st3{fill:#ABCFD3;}
	.st4{fill-rule:evenodd;clip-rule:evenodd;fill:#FFFFFF;}
</style><polygon class="st2" points="51.0002632,57 9.0002642,57 9.0002642,3 41.0002632,3 51.0002632,13 "/><path class="st1" d="M51,58H9c-0.5527344,0-1-0.4477539-1-1V3c0-0.5522461,0.4472656-1,1-1h32  c0.265625,0,0.5195312,0.1054688,0.7070312,0.2929688l10,10C51.8945312,12.4804688,52,12.7348633,52,13v44  C52,57.5522461,51.5527344,58,51,58z M10,56h40V13.4140625L40.5859375,4H10V56z"/><path class="st1" d="M35,24H25c-0.5527344,0-1-0.4477539-1-1s0.4472656-1,1-1h10c0.5527344,0,1,0.4477539,1,1S35.5527344,24,35,24z"/><path class="st1" d="M43,32H17c-0.5527344,0-1-0.4477539-1-1s0.4472656-1,1-1h26c0.5527344,0,1,0.4477539,1,1S43.5527344,32,43,32z"/><path class="st1" d="M43,40H17c-0.5527344,0-1-0.4477539-1-1s0.4472656-1,1-1h26c0.5527344,0,1,0.4477539,1,1S43.5527344,40,43,40z"/><polygon class="st2" points="41.0002632,3 41.0002632,13 51.0002632,13 "/><path class="st1" d="M51,14H41c-0.5527344,0-1-0.4477539-1-1V3c0-0.4042969,0.2431641-0.769043,0.6171875-0.9238281  c0.3740234-0.1533203,0.8037109-0.0698242,1.0898438,0.2167969l10,10c0.2861328,0.2861328,0.3720703,0.7158203,0.2167969,1.0898438  C51.7695312,13.7563477,51.4042969,14,51,14z M42,12h6.5859375L42,5.4140625V12z"/></svg>