<?xml version="1.0" ?><!DOCTYPE svg  PUBLIC '-//W3C//DTD SVG 1.1//EN'  'http://www.w3.org/Graphics/SVG/1.1/DTD/svg11.dtd'><svg height="60px" id="Layer_1" style="enable-background:new 0 0 60 60;" version="1.1" viewBox="0 0 60 60" width="60px" xml:space="preserve" xmlns="http://www.w3.org/2000/svg" xmlns:xlink="http://www.w3.org/1999/xlink"><style type="text/css">
	.st0{fill:#D9DCED;}
	.st1{fill:#3F51B5;}
	.st2{fill:#FFFFFF;}
	.st3{fill:#ABCFD3;}
	.st4{fill-rule:evenodd;clip-rule:evenodd;fill:#FFFFFF;}
</style><polygon class="st2" points="51.0002632,57 9.0002642,57 9.0002642,3 41.0002632,3 51.0002632,13 "/><path class="st1" d="M51,58H9c-0.5527344,0-1-0.4477539-1-1V3c0-0.5522461,0.4472656-1,1-1h32  c0.265625,0,0.5195312,0.1054688,0.7070312,0.2929688l10,10C51.8945312,12.4804688,52,12.7348633,52,13v44  C52,57.5522461,51.5527344,58,51,58z M10,56h40V13.4140625L40.5859375,4H10V56z"/><polygon class="st2" points="41.0002632,3 41.0002632,13 51.0002632,13 "/><path class="st1" d="M51,14H41c-0.5527344,0-1-0.4477539-1-1V3c0-0.4042969,0.2431641-0.769043,0.6171875-0.9238281  c0.375-0.1542969,0.8046875-0.0693359,1.0898438,0.2167969l10,10c0.2861328,0.2861328,0.3720703,0.7158203,0.2167969,1.0898438  C51.7695312,13.7563477,51.4042969,14,51,14z M42,12h6.5859375L42,5.4140625V12z"/><circle class="st0" cx="30.0002651" cy="34" r="13"/><path class="st1" d="M30,48c-7.7197266,0-14-6.2802734-14-14s6.2802734-14,14-14s14,6.2802734,14,14S37.7197266,48,30,48z M30,22  c-6.6171875,0-12,5.3833008-12,12s5.3828125,12,12,12s12-5.3833008,12-12S36.6171875,22,30,22z"/><polygon class="st2" points="26.0002651,40 26.0002651,28 36.0002632,34 "/><path class="st1" d="M26,41c-0.1699219,0-0.3398438-0.0429688-0.4931641-0.1298828C25.1933594,40.6928711,25,40.3603516,25,40V28  c0-0.3603516,0.1933594-0.6928711,0.5068359-0.8701172c0.3144531-0.1777344,0.6982422-0.1728516,1.0078125,0.0126953l10,6  C36.8154297,33.3232422,37,33.6489258,37,34s-0.1845703,0.6767578-0.4853516,0.8574219l-10,6  C26.3564453,40.9526367,26.1777344,41,26,41z M27,29.7661133v8.4677734L34.0566406,34L27,29.7661133z"/></svg>