<?xml version="1.0" standalone="no"?>
<!DOCTYPE svg PUBLIC "-//W3C//DTD SVG 20010904//EN"
 "http://www.w3.org/TR/2001/REC-SVG-20010904/DTD/svg10.dtd">
<svg version="1.0" xmlns="http://www.w3.org/2000/svg"
 width="3746.000000pt" height="1104.000000pt" viewBox="0 0 3746.000000 1104.000000"
 preserveAspectRatio="xMidYMid meet">
<g transform="translate(0.000000,1104.000000) scale(0.100000,-0.100000)"
fill="#3F51B5" stroke="none">
<path d="M6375 10830 c-2402 -62 -4095 -484 -5080 -1267 -477 -380 -797 -840
-960 -1384 -117 -386 -157 -856 -114 -1319 94 -1020 558 -2160 1516 -3727 191
-314 810 -1292 829 -1312 2 -3 9 0 15 6 7 7 -40 116 -152 354 -511 1088 -761
1701 -969 2374 -167 544 -272 1061 -326 1605 -25 253 -26 819 -1 1020 61 488
185 846 412 1185 644 962 2062 1506 4350 1669 887 64 2016 66 3205 6 3426
-173 8367 -814 15665 -2031 3025 -504 5951 -1016 11873 -2075 459 -82 605
-105 614 -96 6 6 10 14 7 16 -14 14 -6502 1343 -8844 1811 -10391 2078 -16423
3007 -20475 3155 -391 14 -1210 19 -1565 10z"/>
<path d="M29540 6880 c-183 -35 -334 -170 -385 -344 -26 -90 -18 -225 18 -299
55 -112 162 -177 291 -177 211 0 417 160 471 365 39 151 -2 316 -98 389 -77
59 -195 86 -297 66z" fill="#4A4A4A" />
<path d="M4051 6558 c-6 -29 -218 -1097 -471 -2373 -253 -1276 -462 -2328
-464 -2338 -4 -17 47 -18 1182 -14 1169 3 1189 3 1317 25 414 70 775 206 1123
423 665 414 1123 1084 1252 1830 45 259 50 586 15 819 -122 789 -652 1382
-1427 1594 -302 83 -351 86 -1510 86 l-1007 0 -10 -52z m1999 -572 c588 -79
1052 -453 1225 -988 49 -151 66 -259 72 -448 8 -247 -20 -452 -91 -673 -140
-428 -444 -828 -826 -1084 -203 -137 -451 -247 -667 -298 -209 -50 -171 -48
-1040 -52 -788 -4 -821 -3 -817 14 2 10 159 801 349 1758 190 957 347 1750
350 1763 l5 22 668 0 c514 0 691 -4 772 -14z" fill="#4A4A4A" />
<path d="M14315 5479 c-261 -20 -545 -112 -748 -243 -125 -79 -258 -202 -359
-330 -29 -36 -38 -43 -33 -25 23 100 111 560 107 564 -3 3 -150 5 -328 5
l-322 0 -5 -22 c-3 -13 -162 -817 -352 -1788 -191 -971 -349 -1775 -352 -1787
l-5 -23 325 0 c302 0 326 1 331 18 3 9 37 179 76 377 215 1081 333 1647 365
1741 129 386 397 690 738 835 299 127 694 126 957 -2 116 -57 240 -179 293
-289 59 -121 79 -212 79 -375 l1 -140 -212 -1060 c-117 -583 -215 -1070 -218
-1082 l-5 -23 325 0 c302 0 326 1 331 18 17 58 440 2176 451 2262 19 135 19
319 1 440 -72 472 -397 797 -903 899 -177 36 -342 46 -538 30z" fill="#4A4A4A" />
<path d="M23455 5480 c-273 -23 -559 -118 -760 -253 -134 -90 -297 -244 -361
-342 -9 -14 -18 -24 -20 -23 -1 2 24 131 56 288 31 157 56 288 53 293 -2 4
-150 7 -328 7 l-324 0 -10 -52 c-6 -29 -164 -834 -351 -1788 -188 -954 -344
-1745 -347 -1757 l-5 -23 325 0 c302 0 326 1 331 18 3 9 95 465 205 1013 110
548 212 1033 226 1079 159 500 527 844 1005 937 128 25 366 22 495 -7 243 -53
417 -185 511 -386 52 -110 68 -198 68 -354 -1 -135 -2 -138 -213 -1200 -117
-586 -214 -1073 -217 -1083 -5 -16 13 -17 322 -15 l327 3 207 1025 c137 679
218 1057 240 1120 73 214 180 390 330 541 229 230 488 349 815 374 97 7 276
-8 371 -31 212 -51 382 -182 473 -363 57 -112 74 -196 74 -366 l0 -150 -212
-1060 c-116 -583 -214 -1068 -217 -1078 -5 -16 13 -17 322 -15 l328 3 217
1075 c120 591 225 1123 233 1182 21 138 21 358 0 479 -26 155 -87 310 -167
429 -73 107 -230 247 -357 318 -278 156 -730 209 -1112 131 -430 -87 -783
-335 -1046 -736 l-60 -93 -7 33 c-33 167 -133 353 -258 480 -174 176 -412 288
-707 332 -127 18 -332 25 -455 15z" fill="#4A4A4A" />
<path d="M35460 5469 c-340 -42 -613 -167 -806 -370 -158 -166 -244 -368 -259
-610 -23 -359 134 -635 475 -839 99 -59 302 -153 525 -243 496 -202 639 -314
663 -517 27 -233 -94 -415 -339 -510 -433 -167 -1141 37 -1541 442 l-77 78
-145 -214 c-80 -118 -146 -219 -146 -224 0 -21 168 -186 256 -253 391 -294
940 -452 1450 -418 291 19 524 94 737 235 304 203 466 501 467 857 0 256 -62
413 -234 594 -150 158 -304 246 -791 453 -331 140 -492 228 -572 311 -18 19
-45 61 -60 94 -24 51 -28 73 -28 145 0 98 20 162 71 234 74 100 217 182 371
212 98 18 295 18 406 -1 245 -43 516 -156 750 -312 l107 -72 160 225 160 225
-32 27 c-253 215 -630 377 -1013 437 -120 19 -450 28 -555 14z" fill="#4A4A4A" />
<path d="M18153 5460 c-562 -71 -1047 -368 -1367 -840 -78 -115 -194 -351
-240 -489 -121 -364 -146 -767 -71 -1137 94 -465 378 -846 780 -1046 455 -227
1065 -206 1547 55 141 76 267 168 390 286 93 89 107 99 102 75 -3 -16 -29
-141 -58 -279 -29 -137 -51 -253 -49 -258 6 -10 631 -9 637 1 6 11 716 3583
716 3606 0 14 -30 16 -319 16 l-319 0 -9 -42 c-5 -24 -45 -215 -88 -425 l-79
-382 -26 67 c-158 407 -485 673 -949 773 -76 16 -141 21 -311 24 -118 2 -247
0 -287 -5z m538 -575 c320 -56 585 -252 728 -541 82 -166 114 -322 115 -559 0
-135 -5 -193 -23 -283 -115 -590 -531 -1027 -1084 -1143 -131 -28 -360 -30
-488 -6 -387 75 -677 329 -797 697 -58 176 -73 441 -38 650 78 458 373 862
779 1066 93 47 256 101 358 118 114 19 345 20 450 1z" fill="#4A4A4A" />
<path d="M32020 5460 c-276 -20 -506 -80 -746 -195 -405 -193 -696 -484 -889
-890 -129 -270 -189 -518 -202 -845 -30 -755 333 -1356 973 -1610 100 -40 237
-75 370 -95 145 -21 443 -21 612 0 375 49 731 193 1007 410 77 60 215 192 215
204 0 3 -72 90 -160 193 l-160 187 -57 -56 c-192 -186 -452 -313 -758 -369
-77 -14 -148 -19 -310 -19 -188 0 -219 3 -299 24 -305 80 -526 257 -666 534
-88 175 -120 324 -120 567 0 265 43 456 151 675 180 366 498 612 902 696 121
25 372 31 502 10 277 -43 495 -145 699 -326 l88 -78 23 24 c67 70 365 411 365
418 0 5 -42 49 -94 99 -296 282 -685 427 -1196 445 -74 3 -187 2 -250 -3z" fill="#4A4A4A" />
<path d="M8450 5432 c0 -10 171 -809 380 -1776 209 -967 380 -1765 380 -1773
0 -18 -153 -258 -236 -369 -237 -321 -527 -467 -821 -411 -119 23 -195 56
-299 132 -20 15 -26 7 -187 -220 -92 -129 -167 -238 -167 -243 0 -21 164 -137
265 -187 219 -109 450 -137 737 -89 372 62 706 303 961 695 74 114 2537 4240
2537 4251 0 4 -148 8 -328 8 l-329 0 -826 -1438 c-455 -791 -833 -1446 -840
-1455 -10 -14 -44 151 -201 970 -104 544 -228 1197 -277 1452 -49 254 -89 465
-89 467 0 2 -148 4 -330 4 -312 0 -330 -1 -330 -18z" fill="#4A4A4A" />
<path d="M29016 5442 c-5 -8 -716 -3585 -716 -3602 0 -6 116 -10 320 -10 l320
0 5 23 c24 97 712 3584 708 3590 -6 9 -630 9 -637 -1z" fill="#4A4A4A" />
</g>
</svg>
