<?xml version="1.0" standalone="no"?>
<!DOCTYPE svg PUBLIC "-//W3C//DTD SVG 20010904//EN"
 "http://www.w3.org/TR/2001/REC-SVG-20010904/DTD/svg10.dtd">
<svg version="1.0" xmlns="http://www.w3.org/2000/svg"
 width="838.000000pt" height="838.000000pt" viewBox="0 0 838.000000 838.000000"
 preserveAspectRatio="xMidYMid meet">
<metadata>
Created by potrace 1.11, written by Peter Selinger 2001-2013
</metadata>
<g transform="translate(0.000000,838.000000) scale(0.100000,-0.100000)"
fill="#000000" stroke="none">
<path d="M2129 5877 l-276 -1392 -44 -6 c-24 -4 -66 -9 -94 -13 -27 -3 -75
-10 -105 -15 -30 -6 -71 -12 -90 -15 -65 -10 -95 -17 -225 -48 -71 -18 -132
-32 -135 -33 -34 -7 -206 -67 -279 -97 -233 -97 -391 -197 -532 -338 -229
-228 -331 -475 -338 -825 -2 -102 8 -232 23 -311 2 -12 7 -37 10 -55 8 -48 12
-66 30 -136 17 -64 71 -233 86 -268 5 -11 27 -65 50 -120 128 -306 297 -607
664 -1185 49 -77 93 -140 98 -140 5 0 7 3 5 8 -3 4 -15 30 -27 57 -13 28 -51
111 -85 185 -65 141 -98 215 -120 265 -7 17 -23 53 -35 80 -68 153 -198 518
-225 635 -1 8 -10 42 -18 75 -19 71 -54 251 -62 315 -3 25 -8 56 -11 70 -10
43 -13 443 -3 493 5 27 10 63 13 80 21 174 129 386 270 529 47 48 172 148 185
148 5 0 11 4 13 8 10 26 254 141 411 193 150 50 482 127 494 115 3 -3 -138
-731 -314 -1618 -201 -1010 -317 -1617 -311 -1623 13 -14 1791 -18 2603 -6
635 10 653 10 785 36 591 112 1070 304 1545 620 371 247 722 587 968 938 261
371 463 808 553 1190 l18 79 46 -6 c51 -7 90 -13 170 -26 30 -5 75 -12 100
-15 25 -4 86 -13 135 -20 50 -8 108 -17 130 -20 22 -3 64 -10 94 -15 86 -16
81 -21 81 84 0 104 3 99 -70 111 -19 3 -82 14 -140 25 -58 11 -159 28 -225 40
-66 11 -130 22 -141 24 -12 2 -39 7 -60 10 -85 14 -80 0 -59 166 22 170 30
526 16 710 -78 1010 -670 1839 -1582 2216 -228 94 -507 171 -719 199 -198 27
-627 35 -1830 35 l-1165 0 -276 -1393z m2899 553 c939 -103 1666 -819 1752
-1725 11 -123 13 -423 3 -528 l-6 -68 -36 5 c-91 13 -308 47 -326 51 -11 3
-37 7 -57 10 -21 3 -54 7 -73 10 -19 3 -52 7 -72 10 -21 3 -67 10 -103 16 -72
11 -94 14 -160 24 -43 6 -74 11 -130 20 -14 2 -49 7 -79 10 -30 4 -61 8 -70
10 -9 1 -38 6 -66 10 -27 4 -61 8 -75 10 -21 3 -133 18 -385 51 -22 3 -51 7
-65 9 -14 2 -54 7 -90 10 -36 4 -72 9 -80 10 -8 2 -44 6 -80 10 -36 4 -78 9
-95 11 -16 2 -59 6 -95 10 -36 3 -74 8 -85 10 -11 2 -53 6 -95 9 -41 3 -82 8
-90 10 -8 2 -51 7 -95 10 -44 4 -93 8 -110 10 -16 2 -64 6 -105 10 -41 3 -93
8 -115 10 -36 3 -99 8 -260 20 -27 2 -102 7 -165 10 -63 3 -137 8 -165 10 -27
3 -169 7 -315 11 -146 3 -266 7 -268 9 -4 3 363 1862 375 1899 5 19 26 19 897
13 491 -4 933 -11 984 -17z m-1683 -2215 c127 -4 253 -9 280 -10 130 -7 285
-16 335 -20 30 -2 93 -7 140 -10 47 -4 105 -8 130 -10 57 -4 206 -17 245 -20
17 -2 68 -7 115 -10 47 -4 92 -9 100 -10 8 -2 51 -6 95 -10 44 -3 114 -10 155
-15 41 -5 107 -12 145 -15 39 -3 81 -8 95 -10 23 -4 49 -7 185 -21 28 -3 66
-7 85 -9 52 -7 198 -24 255 -30 28 -3 61 -8 75 -10 14 -2 52 -7 85 -10 57 -6
72 -8 140 -19 17 -2 57 -7 90 -11 82 -9 113 -13 238 -30 104 -15 174 -24 227
-30 14 -2 43 -6 65 -9 22 -3 55 -8 74 -11 18 -2 35 -6 37 -8 5 -5 -51 -210
-79 -292 -141 -405 -392 -796 -709 -1100 -456 -439 -1084 -733 -1636 -765
-230 -13 -2078 -18 -2091 -5 -7 7 68 405 237 1257 l247 1247 45 3 c72 5 345 2
595 -7z"/>
</g>
</svg>
